<?xml version="1.0" encoding="utf-8"?>
<!-- Generator: Adobe Illustrator 19.1.0, SVG Export Plug-In . SVG Version: 6.00 Build 0)  -->
<!DOCTYPE svg PUBLIC "-//W3C//DTD SVG 1.1//EN" "http://www.w3.org/Graphics/SVG/1.1/DTD/svg11.dtd">
<svg version="1.1" id="Layer_1" xmlns="http://www.w3.org/2000/svg" xmlns:xlink="http://www.w3.org/1999/xlink" x="0px" y="0px"
	 viewBox="0 0 570 450" style="enable-background:new 0 0 570 450;" xml:space="preserve" preserveAspectRatio="xMinYMin meet">
<style type="text/css">
	.st0{fill:#F5D32F;}
	.st1{fill:#E8AE31;}
	.st2{fill:#DB812E;}
	.st3{fill:#D3592A;}
	.st4{fill:#803B2D;}
	.st5{fill:#CF4814;}
	.st6{fill:#D94309;}
	.st7{fill:#5C4834;}
</style>
<path class="st0" d="M219.5,107.9c6-10.5,13.4-19.3,21.6-25.9c-20.9,9.7-37.8,26.6-47.5,47.5C200.2,121.2,208.9,113.9,219.5,107.9z"
	/>
<path class="st1" d="M230,102.6c10-4.4,21.1-7.5,32.5-9.1c2.4-8.4,5.2-14.9,8.3-19.3c-7.5,1.5-14.6,4.6-21.5,9.3
	C242.2,88.3,235.6,94.8,230,102.6z"/>
<path class="st2" d="M230,237.6c5.6,7.8,12.1,14.3,19.3,19.1c6.8,4.7,14,7.8,21.5,9.3c-3.1-4.4-5.8-10.8-8.3-19.3
	C251.1,245.1,240.1,242,230,237.6z"/>
<path class="st3" d="M343.1,107.4c10.9,6.1,19.9,13.6,26.6,22.1c-5.6-12.1-13.7-23.1-23.8-32c-15-13.3-33.9-21.6-53.8-23.8
	c3.2,4.4,6.1,11,8.6,19.8C316.1,95.6,330.7,100.4,343.1,107.4z"/>
<path class="st3" d="M281.7,248.1c-4.2,0-8.5-0.2-12.7-0.6c4.5,14.3,9.4,19.6,12.7,19.6c3.3,0,8.2-5.2,12.7-19.6
	C290.1,247.9,285.9,248.1,281.7,248.1z"/>
<path class="st4" d="M344.3,231.5l-0.4,0.7l-0.7,0.4c-12.5,7-27,11.9-42.3,14c-2.5,8.8-5.4,15.4-8.7,19.8c0.1,0,0.1,0,0.2,0
	c1-0.1,2-0.2,3-0.4c0.8-0.1,1.6-0.2,2.4-0.4c1.3-0.2,2.4-0.4,3.3-0.6c2.8-0.6,5.7-1.3,8.6-2.2l0.3-0.1c0.2,0,0.3-0.1,0.5-0.1
	c6.6-2.1,13.1-4.9,19.1-8.4l0.1-0.1l0,0l0,0c5.6-3.2,10.9-7,15.8-11.3c0.6-0.6,1.3-1.1,1.9-1.8c0.9-0.8,1.6-1.5,2.4-2.3l0.2-0.2
	l0.1-0.1l0.1-0.1l0.2-0.2c0.7-0.7,1.5-1.5,2.3-2.4c0.6-0.7,1.2-1.3,1.8-1.9c4.3-4.9,8.1-10.2,11.3-15.8l0,0l0.1-0.1
	c1.8-3.1,3.4-6.4,4.9-9.8c0.3-0.6,0.5-1.2,0.7-1.8c1-2.5,1.9-5.1,2.7-7.6c0.1-0.2,0.1-0.3,0.1-0.5l0.1-0.3c0.9-2.9,1.6-5.8,2.2-8.6
	c0.2-1,0.4-2.1,0.6-3.3c0.1-0.8,0.3-1.6,0.4-2.4c0.1-1,0.3-2,0.4-3c0-0.1,0-0.1,0-0.2c-4.4,3.2-11,6.1-19.8,8.7
	C356.1,204.5,351.3,219.1,344.3,231.5z"/>
<path class="st1" d="M219.1,231.5l-5.3-9.4l9.4,5.3c11.1,6.3,24.1,10.7,37.7,12.9c-3-12.2-5.1-27-6.2-43.2
	c-18.3-1.3-34.7-3.8-47.7-7.4c-9.7-2.7-17-5.7-21.7-9.2c2.2,19.9,10.5,38.7,23.8,53.8c9,10.1,19.9,18.2,32,23.8
	C232.7,251.4,225.2,242.4,219.1,231.5z"/>
<path class="st2" d="M260.6,142.6c6.9-0.4,14-0.6,21-0.6c8.2,0,16.5,0.3,24.4,0.7c17.3,1.1,33,3.3,45.9,6.4
	c-2.2-13.3-6.5-26-12.5-36.9c-12.2-6.7-26.4-11.3-41.3-13.2l-2-0.3l-0.5-1.9c-4.8-17.6-10.4-23.9-13.9-23.9s-9.1,6.3-13.9,23.9
	C264.3,109.3,261.9,125,260.6,142.6z"/>
<path class="st2" d="M281.7,198.1c-7.1,0-14.1-0.2-21-0.6c1.2,16.7,3.5,31.7,6.6,43.8c4.8,0.5,9.6,0.8,14.5,0.8
	c4.8,0,9.7-0.3,14.5-0.8c3.1-12.1,5.4-27.1,6.6-43.8C295.8,197.9,288.7,198.1,281.7,198.1z"/>
<path class="st0" d="M204.3,182.8c-0.4-4.2-0.6-8.5-0.6-12.7c0-5.7,0.4-11.5,1.1-17.2l0.3-2l1.9-0.5c12.9-3.5,29.4-6.1,47.7-7.4
	c1.1-16.3,3.3-31.1,6.2-43.2c-13.6,2.2-26.5,6.7-37.7,12.9c-11.7,6.6-21.5,15.3-28.1,25c-6.9,10.1-10.4,21-10.4,32.4
	C184.7,173.3,189.9,178.2,204.3,182.8z"/>
<path class="st5" d="M349.2,118.4c4.7,10.6,7.9,22.3,9.4,34.4c0.7,5.7,1.1,11.5,1.1,17.2c0,4.2-0.2,8.5-0.6,12.7
	c14.3-4.5,19.6-9.4,19.6-12.7c0-11.4-3.5-22.3-10.4-32.4C363.4,130.5,356.9,124,349.2,118.4z"/>
<path class="st2" d="M210.5,155.6c-0.5,4.8-0.8,9.6-0.8,14.5c0,4.8,0.3,9.7,0.8,14.5c12.1,3.1,27.1,5.4,43.7,6.6
	c-0.4-6.9-0.6-14-0.6-21c0-7.1,0.2-14.1,0.6-21C237.5,150.2,222.5,152.5,210.5,155.6z"/>
<path class="st3" d="M281.7,148.1c-7.2,0-14.4,0.2-21.4,0.6c-0.4,7-0.6,14.2-0.6,21.4c0,7.2,0.2,14.4,0.6,21.4
	c7,0.4,14.2,0.6,21.4,0.6c8.1,0,16.2-0.2,24.1-0.7l3.4-0.2l-0.2,3.4c-1.1,17.3-3.3,33-6.4,45.9c13.3-2.2,26-6.5,36.9-12.5
	c6.7-12.2,11.3-26.4,13.2-41.3c0.7-5.4,1-11,1-16.5c0-4.8-0.3-9.7-0.8-14.5c-12.9-3.3-29.1-5.7-47.1-6.8
	C297.9,148.3,289.8,148.1,281.7,148.1z"/>
<g>
	<g>
		<path class="st6" d="M494.6,303.3c0,2.2-0.4,4.2-1.2,6c-0.8,1.8-1.8,3.3-3.1,4.6c-1.3,1.3-2.9,2.3-4.6,3c-1.7,0.7-3.6,1.1-5.5,1.1
			c-2.1,0-4.1-0.4-5.8-1.1c-1.8-0.7-3.3-1.8-4.5-3.1c-1.3-1.3-2.3-2.9-3-4.6c-0.7-1.8-1.1-3.7-1.1-5.8c0-2.2,0.4-4.2,1.2-6
			c0.8-1.8,1.8-3.3,3.1-4.6c1.3-1.3,2.9-2.3,4.6-3c1.8-0.7,3.6-1.1,5.5-1.1c1.9,0,3.7,0.4,5.5,1.1c1.7,0.7,3.3,1.7,4.6,3
			c1.3,1.3,2.4,2.8,3.1,4.6C494.2,299.1,494.6,301.1,494.6,303.3z M491.5,303.3c0-1.8-0.3-3.4-0.9-4.9c-0.6-1.5-1.4-2.8-2.4-3.8
			c-1-1.1-2.2-1.9-3.6-2.5c-1.4-0.6-2.8-0.9-4.4-0.9c-1.6,0-3.1,0.3-4.5,0.9c-1.4,0.6-2.6,1.4-3.6,2.5c-1,1.1-1.8,2.4-2.4,3.8
			c-0.6,1.5-0.9,3.1-0.9,4.9c0,1.7,0.3,3.2,0.8,4.7c0.5,1.5,1.3,2.7,2.3,3.8c1,1.1,2.2,2,3.5,2.6c1.4,0.6,3,1,4.7,1
			c1.6,0,3-0.3,4.4-0.9c1.4-0.6,2.5-1.4,3.6-2.5c1-1.1,1.8-2.3,2.4-3.8C491.2,306.7,491.5,305.1,491.5,303.3z M477.3,311.7h-2.7
			v-16.2h6.2c2,0,3.4,0.4,4.4,1.1c1,0.7,1.5,1.9,1.5,3.6c0,1.5-0.4,2.5-1.2,3.2c-0.8,0.7-1.8,1.1-3,1.2l4.5,7.1h-3l-4.2-6.9h-2.5
			V311.7z M480.3,302.5c0.5,0,1,0,1.4-0.1c0.5,0,0.9-0.1,1.2-0.3c0.3-0.2,0.6-0.4,0.8-0.8c0.2-0.3,0.3-0.8,0.3-1.4
			c0-0.5-0.1-0.9-0.3-1.2c-0.2-0.3-0.5-0.5-0.8-0.7c-0.3-0.2-0.7-0.3-1.1-0.3c-0.4,0-0.8-0.1-1.2-0.1h-3.2v4.7H480.3z"/>
	</g>
	<g>
		<path class="st7" d="M77.9,291.3h18.6l20.8,59h0.2l20.3-59h18.4v75.4h-12.6v-58.2h-0.2l-20.9,58.2h-10.9l-20.9-58.2h-0.2v58.2
			H77.9V291.3z"/>
		<path class="st7" d="M174.7,342.5c0,2.1,0.3,4.2,0.9,6.1c0.6,2,1.5,3.7,2.7,5.2c1.2,1.5,2.7,2.7,4.5,3.5c1.8,0.9,4,1.3,6.5,1.3
			c3.5,0,6.4-0.8,8.5-2.3c2.1-1.5,3.7-3.8,4.8-6.8h11.4c-0.6,3-1.7,5.6-3.3,7.9c-1.5,2.3-3.4,4.3-5.6,5.9c-2.2,1.6-4.6,2.8-7.3,3.6
			c-2.7,0.8-5.5,1.2-8.5,1.2c-4.3,0-8.1-0.7-11.4-2.1c-3.3-1.4-6.1-3.4-8.4-5.9c-2.3-2.5-4-5.6-5.2-9.1c-1.2-3.5-1.7-7.4-1.7-11.6
			c0-3.9,0.6-7.6,1.8-11c1.2-3.5,3-6.5,5.3-9.2c2.3-2.6,5.1-4.7,8.3-6.3c3.2-1.5,6.9-2.3,11-2.3c4.3,0,8.1,0.9,11.6,2.7
			c3.4,1.8,6.2,4.2,8.5,7.1c2.3,3,3.9,6.4,4.9,10.2c1,3.8,1.3,7.8,0.8,11.9H174.7z M202.8,334.6c-0.1-1.9-0.5-3.7-1.2-5.5
			c-0.7-1.8-1.6-3.3-2.7-4.6c-1.2-1.3-2.6-2.4-4.2-3.2c-1.7-0.8-3.5-1.2-5.5-1.2c-2.1,0-4,0.4-5.8,1.1c-1.7,0.7-3.2,1.8-4.4,3.1
			c-1.2,1.3-2.2,2.8-3,4.6c-0.7,1.8-1.1,3.7-1.2,5.7H202.8z"/>
		<path class="st7" d="M274.4,366.7H263v-7.4h-0.2c-1.6,3.2-4,5.4-7.1,6.8c-3.1,1.4-6.4,2.1-9.8,2.1c-4.3,0-8-0.8-11.2-2.3
			c-3.2-1.5-5.9-3.6-8-6.2c-2.1-2.6-3.7-5.7-4.8-9.2c-1.1-3.6-1.6-7.4-1.6-11.5c0-4.9,0.7-9.2,2-12.8c1.3-3.6,3.1-6.5,5.3-8.9
			c2.2-2.3,4.8-4,7.6-5.1c2.9-1.1,5.8-1.6,8.7-1.6c1.7,0,3.4,0.2,5.2,0.5c1.8,0.3,3.4,0.8,5.1,1.5c1.6,0.7,3.1,1.6,4.5,2.7
			c1.4,1.1,2.5,2.4,3.4,3.9h0.2v-27.9h12V366.7z M232.4,340c0,2.3,0.3,4.6,0.9,6.9c0.6,2.3,1.5,4.3,2.7,6c1.2,1.8,2.8,3.2,4.7,4.2
			c1.9,1.1,4.2,1.6,6.8,1.6c2.7,0,5-0.6,6.9-1.7c1.9-1.1,3.5-2.6,4.8-4.4c1.2-1.8,2.1-3.9,2.7-6.2c0.6-2.3,0.9-4.6,0.9-7
			c0-6.1-1.4-10.8-4.1-14.2c-2.7-3.4-6.4-5.1-11-5.1c-2.8,0-5.2,0.6-7.1,1.7c-1.9,1.2-3.5,2.7-4.8,4.5c-1.2,1.9-2.1,4-2.6,6.3
			C232.7,335.1,232.4,337.6,232.4,340z"/>
		<path class="st6" d="M277.9,291.3h9.2v30h34.3v-30h13.2v75.4h-13.2v-34h-34.3v34h-9.2V291.3z"/>
		<path class="st6" d="M392.7,366.7h-11.8v-7.6h-0.2c-1.5,2.7-3.7,4.9-6.6,6.6c-2.9,1.7-5.9,2.5-8.9,2.5c-7.2,0-12.4-1.8-15.6-5.3
			c-3.2-3.6-4.8-8.9-4.8-16.1v-34.6h12v33.5c0,4.8,0.9,8.2,2.7,10.1c1.8,2,4.4,3,7.7,3c2.5,0,4.6-0.4,6.3-1.2
			c1.7-0.8,3.1-1.8,4.1-3.1c1.1-1.3,1.8-2.9,2.3-4.7c0.5-1.8,0.7-3.8,0.7-5.9v-31.7h12V366.7z"/>
		<path class="st6" d="M405.7,291.3h12v27.9h0.2c0.8-1.3,1.9-2.5,3.1-3.6c1.2-1.1,2.5-2,4-2.7c1.4-0.7,3-1.3,4.5-1.7
			c1.6-0.4,3.2-0.6,4.7-0.6c4.3,0,8,0.8,11.2,2.3c3.2,1.5,5.9,3.6,8,6.2c2.1,2.6,3.7,5.7,4.8,9.2c1.1,3.5,1.6,7.3,1.6,11.3
			c0,3.7-0.5,7.2-1.4,10.7c-1,3.5-2.4,6.5-4.3,9.1c-1.9,2.6-4.4,4.8-7.3,6.3c-3,1.6-6.4,2.4-10.5,2.4c-1.8,0-3.7-0.1-5.5-0.4
			c-1.9-0.2-3.6-0.7-5.3-1.4c-1.7-0.7-3.2-1.6-4.6-2.7c-1.4-1.1-2.5-2.6-3.4-4.4h-0.2v7.5h-11.4V291.3z M447.8,339.5
			c0-2.5-0.3-4.9-1-7.2c-0.6-2.3-1.6-4.4-2.9-6.2c-1.3-1.8-2.9-3.2-4.8-4.3c-1.9-1.1-4.1-1.6-6.5-1.6c-5.1,0-8.9,1.8-11.5,5.3
			c-2.6,3.5-3.9,8.2-3.9,14c0,2.7,0.3,5.3,1,7.7c0.7,2.4,1.7,4.4,3,6.1c1.3,1.7,2.9,3,4.8,4c1.9,1,4,1.5,6.5,1.5
			c2.7,0,5.1-0.6,7-1.7c1.9-1.1,3.5-2.6,4.7-4.4c1.2-1.8,2.1-3.8,2.6-6.1C447.5,344.2,447.8,341.9,447.8,339.5z"/>
	</g>
</g>
</svg>
