<?xml version="1.0" encoding="utf-8"?>
<!-- Generator: Adobe Illustrator 19.1.0, SVG Export Plug-In . SVG Version: 6.00 Build 0)  -->
<!DOCTYPE svg PUBLIC "-//W3C//DTD SVG 1.1//EN" "http://www.w3.org/Graphics/SVG/1.1/DTD/svg11.dtd">
<svg version="1.1" id="_1" xmlns="http://www.w3.org/2000/svg" xmlns:xlink="http://www.w3.org/1999/xlink" x="0px" y="0px"
	 viewBox="112 -113 250 250" style="enable-background:new 112 -113 250 250;" xml:space="preserve">
<style type="text/css">
	.st0{fill:#686D6A;}
</style>
<g>
	<g>
		<path class="st0" d="M15883.1,11737.7c-4.3-4.1-10.8-1.4-15.5,0.4c-7.1,2.9-13.1,7.8-19.3,12.1c-11.8,6.7-25.9,4.5-38.9,6
			c-10.9,0.6-22.5-3.3-29.2-12.2c8.4-1.8,22.3-0.8,29.5,2.2c7.6,1.7,17-0.7,21.1-7.8c2.9-6-2.8-13.1-8.8-14
			c-15.6-4.3-32.6-3.6-47.1-11.4c-15.9-7.2-33.2-15.5-51.1-11.6c-23,7.5-38.2,19-55.3,36.3c-3.2,3-5.6,5-4.3,7.2
			c7.4,10,15,20.3,22.6,30.6c2.7,3.2,9.9-3.5,13.8-6.3c15.4-11.5,31.9-8.9,44.1-1.1c14.3,7.1,36.5,15.6,42.6,14.8
			c18.2-3,43.5,0.3,57.2-7.4C15858.2,11767.9,15893.5,11750.9,15883.1,11737.7L15883.1,11737.7z"/>
		<path class="st0" d="M15782.7,11572.9c-14.4,0.2-22.2,6.7-26,13.1c-3.7,6.5-3.7,13-3.7,13c0,0.1-0.2,11.3-0.2,11.3
			c-0.2,0.1-0.4,0.2-0.6,0.3c-0.8,0.6-1.3,1.4-1.7,2.2c-0.7,1.7-0.7,3.5-0.7,5.8c0,7.3,4.2,14.3,8.4,18.4
			c3.3,12.2,12.8,21.3,24.4,21.6c11.6-0.3,21.1-9.5,24.4-21.6c4.2-4.1,8.4-11.1,8.4-18.4c0-2.3-0.1-4.1-0.7-5.8
			c-0.3-0.8-0.9-1.6-1.7-2.2c-0.2-0.1-0.4-0.2-0.6-0.3c0,0,0.7-5.8-0.2-11.1c-0.8-5.3-2.2-8.9-5.1-11.1c-1-6.6-4-9.5-9.5-11.9
			C15794.1,11574.5,15788.9,11573,15782.7,11572.9L15782.7,11572.9z"/>
		<path class="st0" d="M15758.5,11651.8c-1.9,0.8-23.2,9.1-29.1,13.2c-6.2,4.2-10,9-13.3,16.3c-2.5,5.5-4.3,11.8-5,17.8
			c6.6-2.8,13.5-4.7,20.8-5.1c13.8-0.3,26.9,4.7,39.3,10.3c12,7.1,25.8,9,39.5,11.3c14.9-1.2,31.3-3.7,42.5-8.8
			c0.8-0.4,1.4-1.3,1.4-2.2c0-7.7-2.1-16.1-5.3-23.4c-3.3-7.3-7.1-12-13.3-16.3c-5.9-4-27.1-12.4-29.1-13.2
			c-4.4,16.8-8.7,45.9-24.2,45.9S15762.8,11668.7,15758.5,11651.8L15758.5,11651.8z"/>
	</g>
</g>
<g>
	<g>
		<g>
			<path class="st0" d="M304.8-106.5H195.2c-1,0-1.8,0.4-2.6,1.1l-36.9,36.9c-0.6,0.6-1.1,1.6-1.1,2.6V101c0,1.9,1.6,3.6,3.6,3.6
				h41.4c1.4,0,2.3-1.6,1.4-2.7l-6.5-8.5c-0.3-0.4-0.9-0.6-1.4-0.6h-26.5V-60.9H196c2.4,0,4.3-1.9,4.3-4.3v-29.4h96.2v66.3
				c0,1.5,1.2,2.7,2.7,2.7h6.6c1.5,0,2.7-1.2,2.7-2.7v-74.6C308.5-104.9,306.9-106.5,304.8-106.5z"/>
			<path class="st0" d="M305.8,46.8h-6.6c-1.5,0-2.7,1.2-2.7,2.7v43.2H270c-0.5,0-1.1,0.2-1.4,0.6l-6.5,8.5
				c-0.9,1.1-0.1,2.7,1.4,2.7h41.4c1.9,0,3.6-1.6,3.6-3.6V49.5C308.5,48,307.3,46.8,305.8,46.8z"/>
		</g>
		<path class="st0" d="M231.6,130.5c-2.3,0-4.3-1-5.6-2.8l-29.9-39.2c-1.6-2.2-1.9-5.1-0.8-7.5c1.2-2.5,3.7-4,6.4-4h8.4V53.6
			c0-3.9,3.1-7,7-7H246c3.9,0,7,3.1,7,7V77h8.4c2.7,0,5.2,1.5,6.4,4s1,5.3-0.8,7.5l-29.9,39.2C235.8,129.5,233.8,130.5,231.6,130.5z
			 M205.5,87.2l25.2,33c0.4,0.5,1.3,0.5,1.7,0l25.2-33c0.5-0.6,0-1.7-0.9-1.7h-7.9c-2.3,0-4.2-1.8-4.2-4.2V56.1
			c0-0.5-0.4-1.1-1.1-1.1h-24.1c-0.5,0-1.1,0.4-1.1,1.1v25.2c0,2.3-1.8,4.2-4.2,4.2h-7.9C205.5,85.4,204.9,86.5,205.5,87.2z"/>
	</g>
	<g>
		<path class="st0" d="M218.1,1.2h-3.5c-0.8,0-1.3,0.5-1.3,1.3v4.8c0,0.8,0.5,1.3,1.3,1.3h3.5c2.5,0,3.7-1.3,3.7-3.5V4.7
			C221.7,2.6,220.6,1.2,218.1,1.2z"/>
		<path class="st0" d="M254.6,1.3h-2.5c-0.8,0-1.3,0.5-1.3,1.3v15.9c0,0.8,0.5,1.3,1.3,1.3h2.5c5.1,0,7.2-2.8,7.2-7.8V8.9
			C261.7,4.2,259.6,1.3,254.6,1.3z"/>
		<path class="st0" d="M316.7-19.6h-123c-1.5,0-2.7,1.2-2.7,2.7v55.1c0,1.5,1.2,2.7,2.7,2.7h123c1.5,0,2.7-1.2,2.7-2.7v-55.1
			C319.4-18.5,318.2-19.6,316.7-19.6z M233.3,5.2c0,6.5-5.3,11.8-11.8,11.8h-6.9c-0.8,0-1.3,0.5-1.3,1.3v8.9c0,0.8-0.5,1.3-1.3,1.3
			h-8.9c-0.8,0-1.3-0.5-1.3-1.3v-33c0-0.8,0.5-1.3,1.3-1.3h18.7c6.3,0,11.4,5.1,11.4,11.4V5.2z M255.3,28.4h-14.6
			c-0.8,0-1.3-0.5-1.3-1.3v-33c0-0.8,0.5-1.3,1.3-1.3h14.1c12.1,0,18.6,5.5,18.7,17.5C273.5,20.3,265.3,28.4,255.3,28.4z M308.5,0
			c0,0.8-0.5,1.3-1.3,1.3h-14.7c-0.8,0-1.3,0.5-1.3,1.3v3.5c0,0.8,0.5,1.3,1.3,1.3h12.3c0.8,0,1.3,0.5,1.3,1.3v5.6
			c0,0.8-0.5,1.3-1.3,1.3h-12.3c-0.8,0-1.3,0.5-1.3,1.3V27c0,0.8-0.5,1.3-1.3,1.3h-8.9c-0.8,0-1.3-0.5-1.3-1.3V-6
			c0-0.8,0.5-1.3,1.3-1.3h26.1c0.8,0,1.3,0.5,1.3,1.3V0z"/>
	</g>
</g>
</svg>
