<?xml version="1.0" encoding="utf-8"?>
<!-- Generator: Adobe Illustrator 19.1.0, SVG Export Plug-In . SVG Version: 6.00 Build 0)  -->
<!DOCTYPE svg PUBLIC "-//W3C//DTD SVG 1.1//EN" "http://www.w3.org/Graphics/SVG/1.1/DTD/svg11.dtd">
<svg version="1.1" id="_1" xmlns="http://www.w3.org/2000/svg" xmlns:xlink="http://www.w3.org/1999/xlink" x="0px" y="0px"
	 viewBox="112 -113 250 250" style="enable-background:new 112 -113 250 250;" xml:space="preserve">
<style type="text/css">
	.st0{fill:#686D6A;}
</style>
<g>
	<g>
		<path class="st0" d="M15883.1,11737.7c-4.3-4.1-10.8-1.4-15.5,0.4c-7.1,2.9-13.1,7.8-19.3,12.1c-11.8,6.7-25.9,4.5-38.9,6
			c-10.9,0.6-22.5-3.3-29.2-12.2c8.4-1.8,22.3-0.8,29.5,2.2c7.6,1.7,17-0.7,21.1-7.8c2.9-6-2.8-13.1-8.8-14
			c-15.6-4.3-32.6-3.6-47.1-11.4c-15.9-7.2-33.2-15.5-51.1-11.6c-23,7.5-38.2,19-55.3,36.3c-3.2,3-5.6,5-4.3,7.2
			c7.4,10,15,20.3,22.6,30.6c2.7,3.2,9.9-3.5,13.8-6.3c15.4-11.5,31.9-8.9,44.1-1.1c14.3,7.1,36.5,15.6,42.6,14.8
			c18.2-3,43.5,0.3,57.2-7.4C15858.2,11767.9,15893.5,11750.9,15883.1,11737.7L15883.1,11737.7z"/>
		<path class="st0" d="M15782.7,11572.9c-14.4,0.2-22.2,6.7-26,13.1c-3.7,6.5-3.7,13-3.7,13c0,0.1-0.2,11.3-0.2,11.3
			c-0.2,0.1-0.4,0.2-0.6,0.3c-0.8,0.6-1.3,1.4-1.7,2.2c-0.7,1.7-0.7,3.5-0.7,5.8c0,7.3,4.2,14.3,8.4,18.4
			c3.3,12.2,12.8,21.3,24.4,21.6c11.6-0.3,21.1-9.5,24.4-21.6c4.2-4.1,8.4-11.1,8.4-18.4c0-2.3-0.1-4.1-0.7-5.8
			c-0.3-0.8-0.9-1.6-1.7-2.2c-0.2-0.1-0.4-0.2-0.6-0.3c0,0,0.7-5.8-0.2-11.1c-0.8-5.3-2.2-8.9-5.1-11.1c-1-6.6-4-9.5-9.5-11.9
			C15794.1,11574.5,15788.9,11573,15782.7,11572.9L15782.7,11572.9z"/>
		<path class="st0" d="M15758.5,11651.8c-1.9,0.8-23.2,9.1-29.1,13.2c-6.2,4.2-10,9-13.3,16.3c-2.5,5.5-4.3,11.8-5,17.8
			c6.6-2.8,13.5-4.7,20.8-5.1c13.8-0.3,26.9,4.7,39.3,10.3c12,7.1,25.8,9,39.5,11.3c14.9-1.2,31.3-3.7,42.5-8.8
			c0.8-0.4,1.4-1.3,1.4-2.2c0-7.7-2.1-16.1-5.3-23.4c-3.3-7.3-7.1-12-13.3-16.3c-5.9-4-27.1-12.4-29.1-13.2
			c-4.4,16.8-8.7,45.9-24.2,45.9S15762.8,11668.7,15758.5,11651.8L15758.5,11651.8z"/>
	</g>
</g>
<g>
	<path class="st0" d="M212.1-12v-9.4c0-3.1,1.7-5.7,4.3-7.2s6-1.2,8.2,0.9l43.7,33.3c2.1,1.4,3.1,3.8,3.1,6.3s-1.2,4.8-3.1,6.3
		L225,51.3c-2.2,1.7-5.7,2.1-8.2,0.9c-2.9-1.4-4.3-3.9-4.3-7.2v-9.4V-12H212.1z M221.6,17.5c0,6.9,0,11.1,0,13.7v8.9
		c0,0.9,1.2,1.4,2.1,0.9l36.9-28.1c0.5-0.5,0.5-1.4,0-2.1l-36.9-27.9c-0.9-0.5-2.1,0-2.1,0.9v8.9c0,2.6,0,0.5,0,7.7V17.5z"/>
	<g>
		<g>
			<path class="st0" d="M237,129.6c-65,0-117.6-53-117.6-117.6c0-65,53-117.6,117.6-117.6c65,0,117.6,53,117.6,117.6
				C354.6,77,302,129.6,237,129.6z M237-91.2c-56.9,0-103.2,46.3-103.2,103.2S180.1,115.2,237,115.2S340.2,68.9,340.2,12
				S293.9-91.2,237-91.2z"/>
		</g>
	</g>
</g>
</svg>
