<?xml version="1.0" encoding="utf-8"?>
<!-- Generator: Adobe Illustrator 22.1.0, SVG Export Plug-In . SVG Version: 6.00 Build 0)  -->
<svg version="1.1" id="Layer_1" xmlns="http://www.w3.org/2000/svg" xmlns:xlink="http://www.w3.org/1999/xlink" x="0px" y="0px"
	 viewBox="0 0 70.1 14.5" style="enable-background:new 0 0 70.1 14.5;" xml:space="preserve">
<style type="text/css">
	.st0{fill:#1C1C1B;}
</style>
<g id="XMLID_53_">
	<path id="XMLID_72_" class="st0" d="M6.6,5.1L6.6,5.1C7,5.3,7.8,6,7.8,7.3c0,1.3-1.1,2.5-2.7,2.5C3,9.9,2.3,8.6,2.3,7.5
		c0-1.4,1-2.4,1-3.7c0-0.9-0.7-1.8-1.6-2l0,0.1c0.4,0.4,0.5,0.8,0.5,1.2c0,1.4-1.2,2.4-1.2,4c0,1.5,1,3,4,3c2.7,0,4.1-1.3,4.1-2.7
		C9.1,6.3,8.3,5.3,6.6,5.1z"/>
	<path id="XMLID_43_" class="st0" d="M18.4,9.9l-3.6-4.6v4.1l0.7,0.2v0.2h-1.7V9.7l0.6-0.2V5c-0.1-0.1-0.3-0.2-0.5-0.3
		c-0.1,0-0.2,0-0.2,0V4.5h1.4l3,4V4.8l-0.7-0.2V4.5h1.7v0.2l-0.6,0.2c0,0,0,3.6,0,4.1c0,0.4,0,0.9,0,1H18.4z M25.8,7
		c0,1.9-1.3,3-2.8,3c-1.5,0-2.8-1.1-2.8-2.9c0-1.8,1.3-2.9,2.8-2.9C24.8,4.3,25.8,5.7,25.8,7z M24.9,7.3c0-1.4-0.8-2.8-2-2.8
		c-1.2,0-1.8,1.2-1.8,2.4c0,1.2,0.7,2.8,2,2.8C24.4,9.8,24.9,8.5,24.9,7.3z M27,4.8l-0.6-0.2V4.5h2.2v0.2l-0.7,0.2l1.5,4.1h0
		l1.5-4.1l-0.7-0.2V4.5h1.6v0.2l-0.6,0.2L29.4,10h-0.5L27,4.8z M39.9,7.1h-0.3V4.8c1.1,0,1.8,0.3,1.8,1.2
		C41.3,6.6,40.7,7.1,39.9,7.1z M49.6,9.7l0.8-0.2V4.8l-0.8-0.2V4.5H52v0.2l-0.8,0.2v4.7L52,9.7v0.2h-2.4V9.7z M53.5,8.4h0.1l0.5,1.2
		c0.2,0.1,0.5,0.2,1,0.2c0.7,0,1.3-0.4,1.3-1.1c0-0.5-0.3-0.8-0.9-1.1c-0.2-0.1-0.4-0.2-0.5-0.3c-0.6-0.3-1.3-0.8-1.3-1.6
		c0-0.8,0.6-1.5,1.8-1.5c0.6,0,1.2,0.2,1.3,0.2l0.1,1.2h-0.2l-0.5-1c-0.1,0-0.4-0.2-0.8-0.2c-0.6,0-1,0.4-1,0.9
		c0,0.5,0.3,0.8,0.9,1.1c0.2,0.1,0.4,0.2,0.6,0.3c0.9,0.4,1.3,0.9,1.3,1.6c0,1-0.9,1.5-2,1.5c-0.8,0-1.4-0.2-1.5-0.2L53.5,8.4z
		 M31.5,9.7l0.6-0.2l1.9-5l0.6-0.2l1.9,5.2l0.6,0.2v0.2h-2.3V9.7l0.8-0.2L35.1,8H33l-0.5,1.5l0.8,0.2v0.2h-1.8V9.7z M33.2,7.6H35
		l-0.9-2.4h0L33.2,7.6z M41,7.2c0.2,0,1.3-0.3,1.3-1.3c0-0.8-0.6-1.4-2.2-1.4c-0.9,0-1.9,0-2,0v0.2l0.6,0.2v4.7L38,9.7v0.2h2.2V9.7
		l-0.7-0.2V7.4h0.6l1.6,2.5h1.4V9.7l-0.7-0.2L41,7.2z M45.6,4.8v4.7l-0.8,0.2v0.2h2.4V9.7l-0.8-0.2V4.8h1.3l0.4,0.9h0.2l-0.1-1.2
		h-4.3l-0.1,1.2h0.2l0.4-0.9H45.6z M5.1,8.2L5.8,1H4.3L5.1,8.2L5.1,8.2z"/>
</g>
</svg>
