<svg version="1.0" id="Icon" xmlns="http://www.w3.org/2000/svg" xmlns:xlink="http://www.w3.org/1999/xlink" x="0px" y="0px" viewBox="0 0 56 55.3">
<g>
	<path class="st0" d="M43,9.7c0-1.7-1.3-3-3-3H16c-1.7,0-3,1.3-3,3v5h30V9.7z"/>
	<path class="st0" d="M49,16.7H7c-1.7,0-3,1.3-3,3v16c0,1.7,1.3,3,3,3h6v7c0,1.7,1.3,3,3,3h24c1.7,0,3-1.3,3-3v-7h6c1.7,0,3-1.3,3-3
		v-16C52,18,50.7,16.7,49,16.7z M40,46.7H16c-0.6,0-1-0.4-1-1v-13h26v13C41,46.2,40.6,46.7,40,46.7z M42,24.8
		c-1.2,0-2.1-0.9-2.1-2.1c0-1.2,0.9-2.1,2.1-2.1s2.1,0.9,2.1,2.1C44.1,23.8,43.2,24.8,42,24.8z"/>
	<rect x="19" y="36.7" class="st0" width="18" height="2"/>
	<rect x="19" y="40.7" class="st0" width="14" height="2"/>
</g>
</svg>