<svg version="1.0" xmlns="http://www.w3.org/2000/svg" xmlns:xlink="http://www.w3.org/1999/xlink" x="0px" y="0px" viewBox="0 0 56 55.3">
<path d="M45.1,17.8c4.3,0,7.8-3.5,7.8-7.8s-3.5-7.8-7.8-7.8s-7.8,3.5-7.8,7.8c0,0.9,0.1,1.7,0.4,2.5L18,22.3
	c-1.5-2-3.9-3.2-6.6-3.2c-4.6,0-8.3,3.7-8.3,8.3s3.7,8.3,8.3,8.3c2.3,0,4.4-0.9,5.9-2.5l14.1,9.3c-0.3,0.9-0.5,1.8-0.5,2.8
	c0,4.3,3.5,7.8,7.8,7.8c4.3,0,7.8-3.5,7.8-7.8c0-4.3-3.5-7.8-7.8-7.8c-2.1,0-4,0.8-5.4,2.2l-14.1-9.3c0.4-1,0.6-2,0.6-3.1
	c0-0.7-0.1-1.4-0.3-2.1l20-9.8C40.9,16.9,42.9,17.8,45.1,17.8z"/>
</svg>