<svg xmlns="http://www.w3.org/2000/svg" xmlns:xlink="http://www.w3.org/1999/xlink">
	
	<symbol id="icon-events" viewBox="0 0 1024 1024">
		<path class="path1" d="M896 128h-96v32c0 35.29-28.71 64-64 64s-64-28.71-64-64v-32h-320v32c0 35.29-28.71 64-64 64s-64-28.71-64-64v-32h-96c-35.2 0-64 28.8-64 64v704c0 35.2 28.8 64 64 64h768c35.2 0 64-28.8 64-64v-704c0-35.2-28.8-64-64-64zM896 895.884c-0.034 0.040-0.076 0.082-0.116 0.116h-767.77c-0.040-0.034-0.082-0.076-0.114-0.116v-575.884h768v575.884zM288 192c17.672 0 32-14.328 32-32v-128c0-17.672-14.328-32-32-32s-32 14.328-32 32v128c0 17.672 14.328 32 32 32zM736 192c17.672 0 32-14.328 32-32v-128c0-17.672-14.328-32-32-32s-32 14.328-32 32v128c0 17.672 14.328 32 32 32zM576 384h-320v64h256v128h-256v64h256v128h-256v64h320zM704 832h64v-448h-128v64h64zM872 984h-720c-35.2 0-64-20.8-64-56v32c0 35.2 28.8 64 64 64h720c35.2 0 64-28.8 64-64v-32c0 35.2-28.8 56-64 56z"></path>
	</symbol>
	
	<symbol id="icon-help" viewBox="0 0 1024 1024">
		<path class="path1" d="M512 0c-282.77 0-512 229.23-512 512s229.23 512 512 512 512-229.23 512-512-229.23-512-512-512zM512 832c-35.346 0-64-28.654-64-64s28.654-64 64-64 64 28.654 64 64-28.654 64-64 64zM617.538 504.158c-39.112 24.57-57.538 38.114-57.538 56.092v32c0 26.51-21.49 48-48 48s-48-21.49-48-48v-32c0-33.618 12.964-63.854 38.532-89.87 18.864-19.194 41.778-33.59 63.936-47.512 45.564-28.624 65.532-43.978 65.532-70.868 0-29.252-16.88-48.788-31.042-60.026-22.734-18.040-54.328-27.974-88.958-27.974-52.534 0-99.792 35.082-114.924 85.314-7.648 25.382-34.422 39.758-59.806 32.114-25.382-7.648-39.76-34.422-32.114-59.806 13.112-43.52 40.398-82.63 76.832-110.124 37.71-28.456 82.668-43.498 130.012-43.498 56.208 0 108.994 17.322 148.63 48.776 43.444 34.474 67.37 82.496 67.37 135.224 0 82.76-63.846 122.872-110.462 152.158z"></path>
	</symbol>
	
	<symbol id="icon-lock" viewBox="0 0 1024 1024">
		<path class="path1" d="M832 448h-64v-192c0-141.384-114.616-256-256-256s-256 114.616-256 256v192h-64c-35.2 0-64 28.8-64 64v448c0 35.2 28.8 64 64 64h640c35.2 0 64-28.8 64-64v-448c0-35.2-28.8-64-64-64zM512 832c-35.346 0-64-28.654-64-64s28.654-64 64-64 64 28.654 64 64-28.654 64-64 64zM640 448h-256v-192c0-70.58 57.42-128 128-128s128 57.42 128 128v192z"></path>
	</symbol>

	<symbol id="icon-menu" viewBox="0 0 1024 1024">
		<path class="path1" d="M64 192h896v128h-896v-128z" style="fill: #923222"></path>
		<path class="path2" d="M64 448h896v128h-896v-128z" style="fill: #923222"></path>
		<path class="path3" d="M64 704h896v128h-896v-128z" style="fill: #923222"></path>
	</symbol>	
	
	<symbol id="icon-products" viewBox="0 0 1024 1024">
		<path class="path1" d="M704 192v-32c0-88.366-71.634-160-160-160-36.022 0-69.258 11.91-96 31.998-26.742-20.088-59.978-31.998-96-31.998-88.366 0-160 71.634-160 160v108.8l-128 19.2v672h128l64 64 640-96v-672l-192-64zM192 896h-64v-552.884l64-9.6v562.484zM544 64c52.936 0 96 43.066 96 96v41.6l-128 19.2v-60.8c0-29.062-7.788-56.29-21.332-79.78 15.266-10.236 33.612-16.22 53.332-16.22zM256 160c0-52.934 43.066-96 96-96 19.72 0 38.066 5.984 53.332 16.222-13.544 23.488-21.332 50.716-21.332 79.778v80l-128 19.2v-99.2zM832 872.884l-512 76.798v-542.566l512-76.8v542.568z"></path>
	</symbol>

	<symbol id="icon-new-tab" viewBox="0 0 1024 1024">
		<path class="path1" d="M192 64v768h768v-768h-768zM896 768h-640v-640h640v640zM128 896v-672l-64-64v800h800l-64-64h-672z"></path>
		<path class="path2" d="M352 256l160 160-192 192 96 96 192-192 160 160v-416z"></path>
	</symbol>
</svg>