<?xml version="1.0" encoding="utf-8"?>
<!-- Generator: Adobe Illustrator 19.1.0, SVG Export Plug-In . SVG Version: 6.00 Build 0)  -->
<!DOCTYPE svg PUBLIC "-//W3C//DTD SVG 1.1//EN" "http://www.w3.org/Graphics/SVG/1.1/DTD/svg11.dtd">
<svg version="1.1" id="Layer_1" xmlns="http://www.w3.org/2000/svg" xmlns:xlink="http://www.w3.org/1999/xlink" x="0px" y="0px"
	 viewBox="-104 61.9 32 32" style="enable-background:new -104 61.9 32 32;" xml:space="preserve">
<style type="text/css">
	.st0{fill:#fff;}
</style>
<g id="Page-1">
	<g id="icon-111-search">
		<path id="search" class="st0" d="M-84.6,83.3c-1.4,1-3.1,1.6-4.9,1.6c-4.7,0-8.5-3.8-8.5-8.5c0-4.7,3.8-8.5,8.5-8.5
			s8.5,3.8,8.5,8.5c0,1.8-0.6,3.5-1.6,4.9l5.6,5.6c0.6,0.6,0.5,1.4,0,2l0,0c-0.5,0.5-1.4,0.5-2,0L-84.6,83.3L-84.6,83.3z
			 M-89.5,82.9c3.6,0,6.5-2.9,6.5-6.5s-2.9-6.5-6.5-6.5s-6.5,2.9-6.5,6.5S-93.1,82.9-89.5,82.9L-89.5,82.9z"/>
	</g>
</g>
</svg>
