<?xml version="1.0" encoding="utf-8"?>
<svg version="1.1" id="_1" xmlns="http://www.w3.org/2000/svg" xmlns:xlink="http://www.w3.org/1999/xlink" x="0px" y="0px"
	 viewBox="0 0 250 250" style="enable-background:new 0 0 250 250;" xml:space="preserve">
<style type="text/css">
	.st0{fill:#923222;}
</style>
<path class="st0" d="M231.9,125c0,59.5-48.5,106.9-106.9,106.9S18.1,184.5,18.1,125S65.5,18.1,125,18.1S231.9,65.5,231.9,125z
	 M123.9,175.7c0-2.2-1.1-3.3-3.3-4.4c-6.6-2.2-13.2-2.2-18.7-7.7c-1.1-2.2-1.1-4.4-2.2-6.6c-2.2-2.2-7.7-3.3-11-4.4
	c-4.4,0-8.8,0-14.3,0c-2.2,0-5.5,0-7.7,0c-3.3-1.1-5.5-5.5-7.7-8.8c0-1.1,0-3.3-2.2-3.3c-2.2-1.1-4.4,1.1-6.6,0
	c-1.1-1.1-1.1-2.2-1.1-3.3c0-3.3,2.2-6.6,4.4-8.8c3.3-2.2,6.6,1.1,9.9,1.1c1.1,0,1.1,0,2.2,1.1c3.3,1.1,4.4,5.5,4.4,8.8
	c0,1.1,0,2.2,0,2.2c0,1.1,1.1,1.1,2.2,1.1c1.1-5.5,1.1-11,2.2-16.5c0-6.6,6.6-13.2,12.1-15.4c2.2-1.1,3.3,1.1,5.5,0
	c6.6-2.2,23.1-8.8,19.8-17.6c-2.2-7.7-8.8-15.4-17.6-14.3c-2.2,1.1-3.3,2.2-5.5,3.3c-3.3,2.2-9.9,8.8-13.2,8.8
	c-5.5-1.1-5.5-8.8-4.4-12.1c1.1-4.4,11-18.7,17.6-16.5c1.1,1.1,3.3,3.3,4.4,4.4c2.2,1.1,5.5,1.1,8.8,1.1c1.1,0,2.2,0,3.3-1.1
	c1.1-1.1,1.1-1.1,1.1-2.2c0-3.3-3.3-6.6-5.5-8.8c-2.2-2.2-5.5-4.4-8.8-5.5c-11-3.3-28.6,1.1-37.5,8.8s-15.4,20.9-19.8,32
	c-2.2,6.6-4.4,15.4-5.5,23.1c-1.1,5.5-2.2,9.9,1.1,15.4c3.3,6.6,9.9,13.2,16.5,17.6c4.4,3.3,13.2,3.3,17.6,8.8
	c3.3,4.4,2.2,9.9,2.2,15.4c0,6.6,4.4,12.1,6.6,17.6c1.1,3.3,2.2,7.7,3.3,11c0,1.1,1.1,7.7,1.1,8.8c6.6,3.3,12.1,6.6,19.8,8.8
	c1.1,0,5.5-6.6,5.5-7.7c3.3-3.3,5.5-7.7,8.8-9.9c2.2-1.1,4.4-2.2,6.6-4.4c2.2-2.2,3.3-6.6,4.4-9.9C123.9,183.4,125,179,123.9,175.7z
	 M126.1,74.3c1.1,0,2.2-1.1,4.4-2.2c3.3-2.2,6.6-5.5,9.9-7.7c3.3-2.2,6.6-5.5,8.8-7.7c3.3-2.2,5.5-6.6,6.6-9.9
	c1.1-2.2,4.4-6.6,3.3-9.9c-1.1-2.2-6.6-3.3-8.8-4.4c-8.8-2.2-16.5-3.3-25.3-3.3c-3.3,0-7.7,1.1-8.8,4.4c-1.1,5.5,3.3,4.4,7.7,5.5
	c0,0,1.1,8.8,1.1,9.9c1.1,5.5-2.2,8.8-2.2,14.3c0,3.3,0,8.8,2.2,11C125,74.3,126.1,74.3,126.1,74.3z M218.7,151.4
	c1.1-2.2,1.1-5.5,2.2-7.7c1.1-5.5,1.1-11,1.1-16.5c0-11-1.1-22-4.4-32c-2.2-3.3-3.3-6.6-4.4-9.9c-2.2-5.5-5.5-11-9.9-15.4
	c-4.4-5.5-9.9-20.9-19.8-16.5c-3.3,1.1-5.5,5.5-7.7,7.7c-2.2,3.3-4.4,6.6-6.6,9.9c-1.1,1.1-2.2,3.3-1.1,4.4c0,1.1,1.1,1.1,2.2,1.1
	c2.2,1.1,3.3,1.1,5.5,2.2c1.1,0,2.2,1.1,1.1,2.2c0,0,0,1.1-1.1,1.1c-5.5,5.5-11,9.9-16.5,15.4c-1.1,1.1-2.2,3.3-2.2,4.4
	c0,1.1,1.1,1.1,1.1,2.2c0,1.1-1.1,1.1-2.2,2.2c-2.2,1.1-4.4,2.2-5.5,3.3c-1.1,2.2,0,5.5-1.1,7.7c-1.1,5.5-4.4,9.9-6.6,15.4
	c-2.2,3.3-3.3,6.6-5.5,9.9c0,4.4-1.1,7.7,1.1,11c5.5,7.7,15.4,3.3,23.1,6.6c2.2,1.1,4.4,1.1,5.5,3.3c3.3,3.3,3.3,8.8,4.4,12.1
	c1.1,4.4,2.2,8.8,4.4,13.2c1.1,5.5,3.3,11,4.4,15.4c9.9-7.7,18.7-16.5,25.3-27.5C212,169.1,215.4,160.3,218.7,151.4z"/>
<path class="st0" d="M125,14.8C64.4,14.8,14.8,64.4,14.8,125S64.4,235.2,125,235.2S235.2,185.6,235.2,125S185.6,14.8,125,14.8z
	 M125,217.6c-50.7,0-92.6-41.9-92.6-92.6S74.3,32.4,125,32.4s92.6,41.9,92.6,92.6S175.7,217.6,125,217.6z"/>
</svg>
