<?xml version="1.0" encoding="utf-8"?>
<!-- Generator: Adobe Illustrator 19.1.0, SVG Export Plug-In . SVG Version: 6.00 Build 0)  -->
<!DOCTYPE svg PUBLIC "-//W3C//DTD SVG 1.1//EN" "http://www.w3.org/Graphics/SVG/1.1/DTD/svg11.dtd">
<svg version="1.1" id="Isolation_Mode" xmlns="http://www.w3.org/2000/svg" xmlns:xlink="http://www.w3.org/1999/xlink" x="0px"
	 y="0px" viewBox="-49.5 101.5 250 250" style="enable-background:new -49.5 101.5 250 250;" xml:space="preserve">
<style type="text/css">
	.st0{fill:#923222;}
</style>
<g>
	<g>
		<g>
			<path class="st0" d="M103,209.7v-20c0-15.2-12.3-27.5-27.5-27.5l0,0c-15.2,0-27.5,12.3-27.5,27.5l0,0c0,0.3,0,0.4,0,0.6l0,0v19.4
				H23.9v-20l0,0l0,0l0,0C24,161.1,47,138,75.5,138l0,0c28.5,0,51.6,23.1,51.8,51.6l0,0v20L103,209.7L103,209.7z"/>
		</g>
	</g>
	<g>
		<path class="st0" d="M127.3,220H23.6c-8.8,0-16,7.2-16,16v63c0,8.8,7.2,16,16,16h103.7c8.8,0,16-7.2,16-16v-63
			C143.5,227.3,136.2,220,127.3,220z M83.9,270v18.2c0,4.7-3.8,8.5-8.5,8.5s-8.5-3.8-8.5-8.5V270c-5-3-8.4-8.4-8.4-14.5
			c0-9.4,7.5-16.9,16.9-16.9s16.9,7.5,16.9,16.9C92.3,261.6,88.9,267,83.9,270z"/>
	</g>
</g>
</svg>
