<svg id="Layer_1" data-name="Layer 1" xmlns="http://www.w3.org/2000/svg" xmlns:xlink="http://www.w3.org/1999/xlink" viewBox="0 0 445.98 119.49"><defs><style>.cls-1{fill:none;}.cls-2{clip-path:url(#clip-path);}.cls-3{clip-path:url(#clip-path-2);}.cls-4{fill:#532e63;}.cls-5{clip-path:url(#clip-path-3);}.cls-6{fill:url(#linear-gradient);}.cls-7{clip-path:url(#clip-path-5);}.cls-8{fill:url(#linear-gradient-2);}.cls-9{fill:#e50e63;}.cls-10{clip-path:url(#clip-path-7);}.cls-11{fill:url(#linear-gradient-3);}</style><clipPath id="clip-path" transform="translate(5.67 -5.52)"><rect class="cls-1" x="-28" y="-37" width="500" height="203.63"/></clipPath><clipPath id="clip-path-2" transform="translate(5.67 -5.52)"><rect class="cls-1" x="8.78" y="10.82" width="431.54" height="114.2"/></clipPath><clipPath id="clip-path-3" transform="translate(5.67 -5.52)"><path class="cls-1" d="M8.78,23.54v.14a2,2,0,0,0,.27.85h0l8.27,14.3a7.75,7.75,0,0,0,4.07,3l13.27,3.33s8.05.67,13.45,10.71h0c0-5.13-.61-10.13-2.5-14-.13-.24-.27-.54-.41-.77s-.13-.21-.19-.32C37,29,10.59,22.65,10.59,22.65a2.55,2.55,0,0,0-.59-.07c-.72,0-1.19.37-1.22,1"/></clipPath><linearGradient id="linear-gradient" x1="-476.79" y1="-315.94" x2="-475.62" y2="-315.94" gradientTransform="translate(12969.77 -19466.68) rotate(-90) scale(40.96)" gradientUnits="userSpaceOnUse"><stop offset="0" stop-color="#c4b6c5"/><stop offset="0.7" stop-color="#532e63"/><stop offset="1" stop-color="#532e63"/></linearGradient><clipPath id="clip-path-5" transform="translate(5.67 -5.52)"><path class="cls-1" d="M54.3,40.9c-.15.23-.33.49-.47.74l-.17.32C47.35,54.85,55.1,80.9,55.1,80.9c.43,1.44,1.64,1.69,2.39.39h0L65.75,67a7.71,7.71,0,0,0,.59-5.05L62.59,48.76s-3.44-7.3,2.56-17v0c-4.47,2.56-8.47,5.61-10.86,9.16"/></clipPath><linearGradient id="linear-gradient-2" x1="-457.04" y1="-334.74" x2="-455.87" y2="-334.74" gradientTransform="translate(-18640.68 -13656.35) rotate(180) scale(40.97)" xlink:href="#linear-gradient"/><clipPath id="clip-path-7" transform="translate(5.67 -5.52)"><path class="cls-1" d="M61.23,12.9l-9.54,9.8s-4.62,6.63-16,6.27h0c4.43,2.59,9.07,4.55,13.33,4.84.28,0,.61,0,.88,0h.38c14.3-1,33-20.67,33-20.67,1-1.1.65-2.26-.86-2.27h0l-16.53,0a7.72,7.72,0,0,0-4.66,2"/></clipPath><linearGradient id="linear-gradient-3" x1="-450.6" y1="-308.25" x2="-449.43" y2="-308.25" gradientTransform="translate(-12566.8 18455.83) rotate(90) scale(40.96)" gradientUnits="userSpaceOnUse"><stop offset="0" stop-color="#f7c7cb"/><stop offset="0.7" stop-color="#e40e62"/><stop offset="1" stop-color="#e40e62"/></linearGradient></defs><title>cosentyxLogo</title><g class="cls-2"><g class="cls-3"><path class="cls-4" d="M9.05,24.53c-.74-1.31.07-2.22,1.54-1.88C10.59,22.65,37,29,45,40.86c.06.11.14.23.19.33s.28.53.41.77C52,54.89,44.22,80.9,44.22,80.9c-.43,1.44-1.63,1.69-2.39.39l-8.3-14.37A7.79,7.79,0,0,1,33,61.83l3.68-13.08a3.19,3.19,0,0,0-2-3.54L21.4,41.88a7.71,7.71,0,0,1-4.08-3L9.05,24.54" transform="translate(5.67 -5.52)"/></g><g class="cls-5"><rect class="cls-6" x="3.08" y="14.97" width="50.78" height="48.58" transform="translate(-10.15 13.97) rotate(-30)"/></g><g class="cls-3"><path class="cls-4" d="M57.49,81.29c-.75,1.3-2,1-2.39-.39,0,0-7.75-26.05-1.44-38.94l.17-.32c.14-.25.32-.51.47-.74,8-11.95,34.42-18.25,34.42-18.25,1.47-.34,2.28.57,1.54,1.88L82,38.89a7.92,7.92,0,0,1-4.17,3L64.64,45.22a3.2,3.2,0,0,0-2,3.54l3.75,13.17A7.71,7.71,0,0,1,65.75,67L57.49,81.29" transform="translate(5.67 -5.52)"/></g><g class="cls-7"><rect class="cls-8" x="30.18" y="36.06" width="53.72" height="42.2" transform="translate(-15.32 72.45) rotate(-60)"/></g><g class="cls-3"><path class="cls-9" d="M145.78,65a23.8,23.8,0,0,1-6.16,5.82,23.4,23.4,0,0,1-12.39,3.5c-14.25,0-24.68-11.66-24.68-27.57,0-16.11,10.22-27.78,24.27-27.78a23.69,23.69,0,0,1,12.6,3.72,30.73,30.73,0,0,1,6.5,5.58l6-5.47c-3.51-3.93-5.06-5.27-8.06-7.13A33.69,33.69,0,0,0,126.61,11c-19,0-32.94,15.06-32.94,35.81s13.73,35.43,32.94,35.43a33.54,33.54,0,0,0,16.11-3.93,22.48,22.48,0,0,0,6.67-5A27,27,0,0,1,145.78,65" transform="translate(5.67 -5.52)"/><path class="cls-9" d="M225,46.41V46c-.1-4.43-3.52-7.23-9.09-7.23-5.27,0-8.67,2.59-8.67,6.71,0,4.34,1.86,5.78,10.63,8.17,6.2,1.65,9.3,3.1,11.67,5.37a13.91,13.91,0,0,1,3.72,9.39c0,8.16-6.82,13.64-16.73,13.64-10.95,0-17-4.86-17.86-14.46h7.74c.52,5.26,4,8.15,9.92,8.15,5.36,0,8.88-2.79,8.88-6.92s-2.59-6.19-10.85-8.36c-10.33-2.68-15-7.13-15-14.35,0-8.16,6.82-13.74,16.64-13.74,10.22,0,16.31,5.17,16.73,14Z" transform="translate(5.67 -5.52)"/><path class="cls-9" d="M243.82,59.74C244.76,69,251.05,75,259.62,75A16.38,16.38,0,0,0,274,66.75l6.92,2.58a23.32,23.32,0,0,1-21.17,12.72c-14.15,0-24.28-10.23-24.28-24.69s9.92-25,24-25c13.83,0,24.16,10.43,24.16,24.37,0,.72,0,1.77-.1,3Zm15.6-20.45A15.39,15.39,0,0,0,246.62,46c-1.55,2.38-2.07,3.92-2.7,8h31.29c-.82-9-7-14.76-15.79-14.76" transform="translate(5.67 -5.52)"/><path class="cls-9" d="M295,33.51v6.6c4.13-5.47,8.25-7.74,14.15-7.74a16,16,0,0,1,10.95,3.92c3.09,3,4.12,6,4.12,12.7V81h-7.84V50.75c-.1-8.16-2.69-11.46-9.19-11.46C300.1,39.29,295,44.66,295,52V81h-7.85V33.51Z" transform="translate(5.67 -5.52)"/><path class="cls-9" d="M339.75,71.29c0,2.27.72,2.91,3.52,2.91h3.61V81h-7.23c-5.58,0-7.72-2.18-7.72-7.33V40.44h-6.49V33.5h6.49V18.43h7.82V33.5h6.56l2.26,6.94h-8.82Z" transform="translate(5.67 -5.52)"/><polygon class="cls-9" points="390.82 27.98 399.28 27.98 370.89 98.41 362.42 98.41 372.33 74.03 355.4 27.98 363.66 27.98 376.57 63.2 390.82 27.98"/><polygon class="cls-9" points="402.71 75.48 393.11 75.48 410.67 51.94 399.29 36.71 402.79 28.05 415.42 45.44 428.33 27.98 437.93 27.98 420.06 51.94 437.1 75.48 427.61 75.48 415.42 58.24 402.71 75.48"/><path class="cls-9" d="M433.7,76.28V81h-.78V76.28h-1.29v-.67H435v.67ZM439.59,81l-.2-3.73L438.06,81h-.46l-1.27-3.71L436.1,81h-.69l.32-5.4h.6l1.53,4.21,1.5-4.21H440l.31,5.4Z" transform="translate(5.67 -5.52)"/><path class="cls-4" d="M99.08,121.42l1.94-1.65a10.2,10.2,0,0,0,7.53,2.92c3.12,0,6.27-1.71,6.27-4.82s-1.84-3.89-5.2-4.52l-2.67-.59c-4.28-.83-6.85-2.78-6.85-6.18,0-3.93,3.06-7,8.41-7,3.4,0,6.22.78,8.07,2.67l-1.9,1.6a9.61,9.61,0,0,0-6.42-2c-3.2,0-5.35,1.8-5.35,4.28s2,3.51,5.5,4.27l3.6.79c3.4.77,5.78,2.58,5.78,6.12,0,5.11-4.61,7.69-9.19,7.69-3.84,0-7.28-1-9.52-3.55" transform="translate(5.67 -5.52)"/><path class="cls-4" d="M120.42,115.24V110c0-6.65,4.32-10.35,10.11-10.35,5.39,0,9.33,3.31,9.33,9.53v3.55H123.39v2.87c0,4.28,2.72,7,7.38,7a8.06,8.06,0,0,0,6.48-3.11l2.13,1.37c-2.23,3.2-5.6,4.17-8.8,4.17-5.94,0-10.16-3.11-10.16-9.77M137,110.67V109c0-3.8-2.09-7-6.75-7-4.43,0-6.9,3.44-6.9,7.33v1.32Z" transform="translate(5.67 -5.52)"/><path class="cls-4" d="M142.68,115.29v-5.65c0-6.27,3.84-10,9.67-10s9.25,3.21,9.25,8v.74h-2.77v-1c0-2.48-1.84-5.4-6.42-5.4s-6.76,3.2-6.76,7.44v5.88c0,4.23,2,7.23,6.81,7.23,4.57,0,6.37-2.86,6.37-5.39v-.82h2.77V117c0,4.81-3.45,8-9.19,8-6,0-9.73-3.49-9.73-9.72" transform="translate(5.67 -5.52)"/><path class="cls-4" d="M164.89,117.32V100.17h2.88V116c0,4.52,2.24,6.41,5.58,6.41a7.53,7.53,0,0,0,7.46-7.77V100.17h2.81v24.21H180.9v-4.62h-.09a9.08,9.08,0,0,1-8.37,5.21c-5.06,0-7.55-3.41-7.55-7.65" transform="translate(5.67 -5.52)"/><polygon class="cls-4" points="194.53 84.14 197.4 84.14 197.4 107.23 208.93 94.64 212.43 94.64 204.12 103.54 213.21 118.86 210 118.86 202.12 105.57 197.4 110.54 197.4 118.86 194.53 118.86 194.53 84.14"/><path class="cls-4" d="M209.93,89.38h2.8v4.94h-2.8Zm.33,10.79h2.81v24.21h-2.81Z" transform="translate(5.67 -5.52)"/><path class="cls-4" d="M218.43,100.17h2.72v4.62h.1a9.14,9.14,0,0,1,8.36-5.2c5.06,0,7.54,3.4,7.54,7.62v17.17h-2.87V108.54c0-4.53-2.24-6.43-5.55-6.43a7.53,7.53,0,0,0-7.48,7.79v14.48h-2.82Z" transform="translate(5.67 -5.52)"/><path class="cls-4" d="M242,117.32V100.17h2.87V116c0,4.52,2.23,6.41,5.58,6.41a7.51,7.51,0,0,0,7.44-7.77V100.17h2.82v24.21H258v-4.62h-.11a9.05,9.05,0,0,1-8.36,5.21c-5,0-7.53-3.41-7.53-7.65" transform="translate(5.67 -5.52)"/><path class="cls-4" d="M265.92,100.17h2.73v4.62h.1a9.12,9.12,0,0,1,8.41-5.2,6.65,6.65,0,0,1,6.86,5.29h0a9.46,9.46,0,0,1,8.61-5.29c4.71,0,7.53,3.06,7.53,7.38v17.41h-2.82V108.54c0-4.39-2.08-6.43-5.59-6.43a7.49,7.49,0,0,0-7.29,7.4v14.87h-2.82v-16c-.1-4.18-2-6.28-5.54-6.28a7.45,7.45,0,0,0-7.34,7.53v14.74h-2.88Z" transform="translate(5.67 -5.52)"/><path class="cls-4" d="M304.09,118c0-5.44,5-7.24,9-7.24h7.1V107c0-3.8-2.53-5.11-6.17-5.11-3,0-6.22,1.07-6.22,4.23v.78h-2.64v-.73c0-4.82,4.48-6.61,9-6.61,4.71,0,8.89,1.7,8.89,7v11.77c0,1.4.2,5,.34,6.08h-2.82c-.1-.84-.2-3.12-.2-3.85h-.09c-2,3.74-5.25,4.38-8.21,4.38-4.38,0-8-2.43-8-6.91m16.09-2.39v-2.71h-6.51c-3.31,0-6.71.83-6.71,5,0,3.27,2.82,4.82,5.88,4.82,4.86,0,7.34-2.87,7.34-7.06" transform="translate(5.67 -5.52)"/><path class="cls-4" d="M330.79,120.05h-.16v4.33H328V89.71h2.83V104.5h.13a8.52,8.52,0,0,1,7.79-4.91c5.1,0,8.55,3.3,8.55,8.37v7.86c0,6.51-4.52,9.19-9.09,9.19a7.66,7.66,0,0,1-7.38-5m13.55-3.83V108c0-3.36-2.42-5.89-6.51-5.89-3.35,0-7,3.06-7,8.06V115c0,4.66,3.3,7.61,7.09,7.61,3.16,0,6.46-2,6.46-6.35" transform="translate(5.67 -5.52)"/><path class="cls-9" d="M172.77,82c-14.14,0-24.06-10.12-24.06-24.89s9.82-24.78,24.17-24.78c14,0,24.26,10.43,24.26,24.68s-10.53,25-24.37,25m.11-42.44c-9.7,0-16.22,7.12-16.22,17.76,0,10.43,6.62,17.65,16.22,17.65s16.21-7.33,16.21-18.07c0-10.31-6.61-17.34-16.21-17.34" transform="translate(5.67 -5.52)"/><path class="cls-9" d="M82.43,10.92c1.51,0,1.88,1.17.86,2.27,0,0-18.73,19.7-33,20.67h-.38c-.27,0-.6,0-.87,0-14.37-1-33-20.74-33-20.74-1-1.1-.65-2.26.85-2.26l16.61,0A7.8,7.8,0,0,1,38.13,13L47.6,22.7a3.16,3.16,0,0,0,4.09,0l9.54-9.8a7.67,7.67,0,0,1,4.67-2l16.53,0" transform="translate(5.67 -5.52)"/></g><g class="cls-10"><rect class="cls-11" x="48.47" y="-1.97" width="23.05" height="48.68" transform="translate(43.19 76.81) rotate(-89.91)"/></g></g></svg>