<svg id="Layer_1" data-name="Layer 1" xmlns="http://www.w3.org/2000/svg" xmlns:xlink="http://www.w3.org/1999/xlink" viewBox="0 0 496.37 119"><defs><style>.cls-1{fill:none;}.cls-2{clip-path:url(#clip-path);}.cls-3{fill:#512a5a;}.cls-4{clip-path:url(#clip-path-3);}.cls-5{fill:url(#linear-gradient);}.cls-6{clip-path:url(#clip-path-5);}.cls-7{fill:url(#linear-gradient-2);}.cls-8{fill:#e0005b;}.cls-9{clip-path:url(#clip-path-7);}.cls-10{fill:url(#linear-gradient-3);}.cls-11{fill:#1d1d1b;}</style><clipPath id="clip-path" transform="translate(3.65 -4.29)"><rect class="cls-1" x="-35.65" y="-22.74" width="600" height="181.48"/></clipPath><clipPath id="clip-path-3" transform="translate(3.65 -4.29)"><path class="cls-1" d="M11.35,23.34h0l8.22,14.23a7.69,7.69,0,0,0,4.06,3l13.2,3.32s8,.67,13.37,10.65h0c0-5.1-.6-10.07-2.47-13.89l-.41-.78-.19-.32c-8-11.83-34.26-18.11-34.26-18.11a2.47,2.47,0,0,0-.58-.07c-1.08,0-1.58.82-1,1.93"/></clipPath><linearGradient id="linear-gradient" x1="-449.64" y1="-324.48" x2="-447.18" y2="-324.48" gradientTransform="matrix(0, -19.4, -19.4, 0, -6265.46, -8662.22)" gradientUnits="userSpaceOnUse"><stop offset="0" stop-color="#cfc1cf"/><stop offset="0.7" stop-color="#512a5a"/><stop offset="1" stop-color="#512a5a"/></linearGradient><clipPath id="clip-path-5" transform="translate(3.65 -4.29)"><path class="cls-1" d="M56.36,39.62c-.16.24-.33.5-.47.74l-.17.32c-6.28,12.82,1.43,38.73,1.43,38.73.43,1.44,1.63,1.68,2.38.39h0l8.22-14.24a7.68,7.68,0,0,0,.58-5L64.6,47.45s-3.42-7.26,2.55-16.9v0c-4.43,2.54-8.42,5.58-10.79,9.1"/></clipPath><linearGradient id="linear-gradient-2" x1="-413.7" y1="-285.7" x2="-411.23" y2="-285.7" gradientTransform="matrix(-19.41, 0, 0, 19.41, -7943.05, 5599.95)" xlink:href="#linear-gradient"/><clipPath id="clip-path-7" transform="translate(3.65 -4.29)"><path class="cls-1" d="M63.25,11.77l-9.49,9.76s-4.59,6.59-15.92,6.23h0c4.4,2.58,9,4.52,13.26,4.82l.87,0h.38c14.23-1,32.85-20.56,32.85-20.56,1-1.09.64-2.25-.85-2.26h0l-16.44,0a7.73,7.73,0,0,0-4.64,2"/></clipPath><linearGradient id="linear-gradient-3" x1="-397.91" y1="-336.21" x2="-395.44" y2="-336.21" gradientTransform="matrix(0, 19.4, 19.4, 0, 6585.69, 7717.75)" gradientUnits="userSpaceOnUse"><stop offset="0" stop-color="#f8d1d5"/><stop offset="0.7" stop-color="#e0015b"/><stop offset="1" stop-color="#e0015b"/></linearGradient></defs><title>cosentyxlogo</title><g class="cls-2"><g class="cls-2"><path class="cls-3" d="M11.35,23.34c-.74-1.3.08-2.2,1.53-1.86,0,0,26.29,6.28,34.26,18.11.06.11.14.23.18.32s.29.53.41.78c6.31,12.85-1.4,38.72-1.4,38.72-.43,1.44-1.62,1.68-2.37.39L35.69,65.5a7.8,7.8,0,0,1-.48-5l3.66-13a3.16,3.16,0,0,0-2-3.52L23.63,40.6a7.63,7.63,0,0,1-4.05-3L11.35,23.35" transform="translate(3.65 -4.29)"/></g><g class="cls-4"><rect class="cls-5" x="5.07" y="13.75" width="50.82" height="48.49" transform="translate(-11.27 16.04) rotate(-30)"/></g><g class="cls-2"><path class="cls-3" d="M59.53,79.8c-.75,1.29-2,1-2.38-.39,0,0-7.71-25.91-1.43-38.73l.17-.31c.14-.25.31-.52.47-.75,8-11.88,34.24-18.14,34.24-18.14,1.45-.34,2.26.56,1.53,1.87L83.88,37.63a7.83,7.83,0,0,1-4.15,3L66.64,43.92a3.19,3.19,0,0,0-2,3.53l3.73,13.1a7.66,7.66,0,0,1-.58,5L59.53,79.8" transform="translate(3.65 -4.29)"/></g><g class="cls-6"><rect class="cls-7" x="32.37" y="34.82" width="53.43" height="41.97" transform="translate(-15.14 74.78) rotate(-60)"/></g><g class="cls-2"><path class="cls-8" d="M147.34,63.56a22.28,22.28,0,0,1-18.45,9.28c-14.17,0-24.54-11.6-24.54-27.43,0-16,10.16-27.63,24.14-27.63A23.59,23.59,0,0,1,141,21.49,29.91,29.91,0,0,1,147.48,27l6-5.45c-3.49-3.9-5-5.24-8-7.08a33.48,33.48,0,0,0-17.15-4.62c-18.9,0-32.76,15-32.76,35.62s13.65,35.25,32.76,35.25a33.3,33.3,0,0,0,16-3.92,22.34,22.34,0,0,0,6.64-5,26.75,26.75,0,0,1-3.6-8.28" transform="translate(3.65 -4.29)"/><path class="cls-8" d="M226.17,45.11V44.7c-.1-4.41-3.5-7.19-9-7.19-5.24,0-8.63,2.57-8.63,6.68,0,4.3,1.85,5.74,10.58,8.12,6.16,1.64,9.24,3.08,11.61,5.34A13.85,13.85,0,0,1,234.38,67c0,8.12-6.78,13.56-16.64,13.56-10.89,0-17-4.83-17.77-14.38h7.71c.51,5.24,4,8.11,9.86,8.11,5.34,0,8.84-2.78,8.84-6.88s-2.58-6.16-10.79-8.32c-10.28-2.67-14.9-7.09-14.9-14.27,0-8.12,6.78-13.67,16.54-13.67,10.17,0,16.23,5.15,16.64,14Z" transform="translate(3.65 -4.29)"/><path class="cls-8" d="M244.86,58.37c.93,9.23,7.19,15.18,15.71,15.18a16.29,16.29,0,0,0,14.28-8.21l6.89,2.57a23.21,23.21,0,0,1-21.06,12.64c-14.08,0-24.14-10.17-24.14-24.55s9.86-24.86,23.83-24.86c13.76,0,24,10.38,24,24.24,0,.72,0,1.76-.1,3ZM260.37,38a15.3,15.3,0,0,0-12.73,6.68c-1.54,2.37-2.06,3.9-2.68,8h31.12c-.82-8.93-7-14.68-15.71-14.68" transform="translate(3.65 -4.29)"/><path class="cls-8" d="M295.8,32.27v6.57c4.11-5.44,8.21-7.7,14.07-7.7A15.85,15.85,0,0,1,320.76,35c3.08,3,4.11,6,4.11,12.64V79.52h-7.81V49.42c-.1-8.11-2.67-11.4-9.14-11.4-7.09,0-12.12,5.34-12.12,12.64V79.52H288V32.27Z" transform="translate(3.65 -4.29)"/><path class="cls-8" d="M340.27,69.86c0,2.26.72,2.88,3.5,2.88h3.6v6.78h-7.19c-5.55,0-7.68-2.17-7.68-7.3v-33H326V32.26h6.47v-15h7.77v15h6.53L349,39.17h-8.77Z" transform="translate(3.65 -4.29)"/><polygon class="cls-8" points="389.07 27.98 397.49 27.98 369.25 98.04 360.83 98.04 370.69 73.79 353.84 27.98 362.06 27.98 374.9 63.01 389.07 27.98"/><polygon class="cls-8" points="400.9 75.23 391.36 75.23 408.82 51.81 397.5 36.67 400.98 28.05 413.54 45.35 426.38 27.98 435.93 27.98 418.16 51.81 435.11 75.23 425.66 75.23 413.54 58.08 400.9 75.23"/><path class="cls-3" d="M100.89,119.72l1.93-1.65a10.17,10.17,0,0,0,7.5,2.9c3.1,0,6.23-1.69,6.23-4.79s-1.83-3.87-5.17-4.5l-2.65-.58c-4.26-.83-6.82-2.76-6.82-6.14,0-3.92,3-7,8.36-7,3.39,0,6.19.78,8,2.65l-1.89,1.6a9.55,9.55,0,0,0-6.38-2c-3.19,0-5.32,1.79-5.32,4.26s1.93,3.49,5.46,4.25l3.58.78c3.39.76,5.76,2.56,5.76,6.09,0,5.08-4.59,7.65-9.15,7.65-3.81,0-7.24-1-9.47-3.53" transform="translate(3.65 -4.29)"/><path class="cls-3" d="M122.12,113.57v-5.24c0-6.61,4.3-10.29,10.06-10.29,5.36,0,9.28,3.29,9.28,9.48v3.53H125.07v2.86c0,4.25,2.71,7,7.35,7a8,8,0,0,0,6.43-3.09l2.13,1.37c-2.22,3.18-5.57,4.15-8.76,4.15-5.9,0-10.1-3.1-10.1-9.72M138.65,109v-1.64c0-3.78-2.07-7-6.71-7-4.4,0-6.87,3.42-6.87,7.28V109Z" transform="translate(3.65 -4.29)"/><path class="cls-3" d="M144.26,113.62V108c0-6.24,3.82-10,9.63-10s9.19,3.2,9.19,8v.74h-2.76v-1c0-2.45-1.83-5.36-6.39-5.36s-6.72,3.18-6.72,7.4v5.85c0,4.2,2,7.19,6.78,7.19,4.54,0,6.33-2.85,6.33-5.36v-.82h2.76v.63c0,4.78-3.44,8-9.15,8-6,0-9.67-3.48-9.67-9.67" transform="translate(3.65 -4.29)"/><path class="cls-3" d="M166.36,115.64V98.58h2.86v15.77c0,4.49,2.23,6.37,5.55,6.37a7.48,7.48,0,0,0,7.41-7.73V98.58H185v24.08h-2.71v-4.59h-.09a9,9,0,0,1-8.32,5.18c-5,0-7.5-3.39-7.5-7.61" transform="translate(3.65 -4.29)"/><polygon class="cls-3" points="193.84 83.84 196.7 83.84 196.7 106.81 208.16 94.29 211.64 94.29 203.37 103.14 212.42 118.37 209.22 118.37 201.39 105.16 196.7 110.1 196.7 118.37 193.84 118.37 193.84 83.84"/><path class="cls-3" d="M211.15,87.85h2.79v4.91h-2.79Zm.33,10.73h2.8v24.08h-2.8Z" transform="translate(3.65 -4.29)"/><path class="cls-3" d="M219.6,98.58h2.71v4.59h.1A9.1,9.1,0,0,1,230.72,98c5,0,7.5,3.38,7.5,7.58v17.08h-2.86V106.9c0-4.51-2.22-6.39-5.51-6.39a7.48,7.48,0,0,0-7.44,7.74v14.41H219.6Z" transform="translate(3.65 -4.29)"/><path class="cls-3" d="M243.05,115.64V98.58h2.86v15.77c0,4.49,2.22,6.37,5.56,6.37a7.47,7.47,0,0,0,7.39-7.73V98.58h2.81v24.08H259v-4.59h-.11a9,9,0,0,1-8.31,5.18c-5,0-7.5-3.39-7.5-7.61" transform="translate(3.65 -4.29)"/><path class="cls-3" d="M266.84,98.58h2.72v4.59h.09A9.08,9.08,0,0,1,278,98a6.63,6.63,0,0,1,6.83,5.26h0A9.41,9.41,0,0,1,293.44,98c4.69,0,7.49,3,7.49,7.35v17.31h-2.8V106.9c0-4.37-2.07-6.39-5.56-6.39a7.46,7.46,0,0,0-7.26,7.35v14.8h-2.8v-15.9c-.09-4.17-2-6.25-5.51-6.25a7.41,7.41,0,0,0-7.3,7.49v14.66h-2.86Z" transform="translate(3.65 -4.29)"/><path class="cls-3" d="M304.81,116.32c0-5.41,5-7.2,8.94-7.2h7.06V105.4c0-3.78-2.52-5.08-6.14-5.08-3,0-6.19,1.06-6.19,4.2v.77h-2.62v-.72c0-4.79,4.45-6.57,8.95-6.57,4.7,0,8.85,1.69,8.85,6.91v11.71c0,1.39.2,5,.34,6h-2.8c-.1-.83-.2-3.1-.2-3.82h-.09c-2,3.72-5.23,4.36-8.17,4.36-4.36,0-7.93-2.42-7.93-6.88m16-2.37v-2.7h-6.48c-3.29,0-6.67.82-6.67,4.93,0,3.25,2.8,4.79,5.85,4.79,4.83,0,7.3-2.86,7.3-7" transform="translate(3.65 -4.29)"/><path class="cls-3" d="M331.36,118.35h-.15v4.31h-2.66V88.17h2.81v14.71h.13A8.5,8.5,0,0,1,339.23,98c5.08,0,8.52,3.28,8.52,8.32v7.83c0,6.48-4.51,9.14-9.05,9.14a7.63,7.63,0,0,1-7.34-4.94m13.48-3.81v-8.22c0-3.33-2.41-5.86-6.48-5.86-3.33,0-7,3.05-7,8v4.81c0,4.63,3.28,7.57,7.05,7.57,3.15,0,6.43-2,6.43-6.32" transform="translate(3.65 -4.29)"/><path class="cls-8" d="M174.19,80.55c-14.07,0-23.93-10.07-23.93-24.76s9.76-24.65,24-24.65c14,0,24.13,10.38,24.13,24.55S188,80.55,174.19,80.55m.11-42.22c-9.65,0-16.13,7.08-16.13,17.67,0,10.37,6.58,17.55,16.13,17.55s16.12-7.29,16.12-18c0-10.25-6.57-17.25-16.12-17.25" transform="translate(3.65 -4.29)"/><path class="cls-8" d="M84.33,9.8c1.5,0,1.88,1.17.86,2.26,0,0-18.62,19.6-32.85,20.56H52l-.87,0C36.8,31.59,18.29,12,18.29,12c-1-1.09-.64-2.24.85-2.24l16.51,0a7.71,7.71,0,0,1,4.62,2.11l9.42,9.69a3.17,3.17,0,0,0,4.07,0l9.49-9.76a7.7,7.7,0,0,1,4.64-2l16.44,0" transform="translate(3.65 -4.29)"/></g><g class="cls-9"><rect class="cls-10" x="50.56" y="-3.01" width="22.92" height="48.42" transform="translate(44.37 78.89) rotate(-89.91)"/></g><g class="cls-2"><path class="cls-8" d="M452.39,33.94A9.75,9.75,0,0,1,435.74,27a9.73,9.73,0,0,1,9.73-9.73A9.73,9.73,0,0,1,455.25,27a9.51,9.51,0,0,1-2.86,6.93M439.55,21.08A8.08,8.08,0,0,0,437.1,27a8.24,8.24,0,0,0,2.43,6,8.39,8.39,0,0,0,11.89,0,8.21,8.21,0,0,0,2.44-6,8.37,8.37,0,0,0-14.31-5.94m5.74.55a8.1,8.1,0,0,1,2.92.38,2.67,2.67,0,0,1,1.67,2.72,2.34,2.34,0,0,1-1.05,2.11,4,4,0,0,1-1.55.52,2.58,2.58,0,0,1,1.84,1.05,2.93,2.93,0,0,1,.58,1.66v.79c0,.24,0,.51,0,.79a1.63,1.63,0,0,0,.1.56l.06.13h-1.77a.36.36,0,0,1,0-.1l0-.12,0-.35v-.85a2.63,2.63,0,0,0-1-2.45,4.56,4.56,0,0,0-2.1-.34h-1.49v4.21h-1.89V21.63Zm2,1.68a5,5,0,0,0-2.29-.4h-1.61V26.8h1.7a5.14,5.14,0,0,0,1.81-.24,1.65,1.65,0,0,0,1.1-1.68,1.65,1.65,0,0,0-.71-1.57" transform="translate(3.65 -4.29)"/><polygon class="cls-11" points="479.01 45.03 479.01 45.03 461.38 13.53 496.37 13.53 479.01 45.03"/></g></g></svg>