<?xml version="1.0"?>
<svg width="280" height="280.1" xmlns="http://www.w3.org/2000/svg" viewBox="0 0 282 282">
 <style type="text/css">.st0{fill:#923222;}</style>

 <g>
  <title>background</title>
  <rect fill="none" id="canvas_background" height="282.1" width="282" y="-1" x="-1"/>
 </g>
 <g>
  <title>Layer 1</title>
  <g stroke="null" id="profile_1_">
   <path stroke="null" id="svg_1" d="m193.261444,141.271942c-0.740845,1.432281 -2.173126,2.913956 -3.605408,4.346237c-14.520432,17.434387 -31.213959,26.126892 -45.684998,26.126892s-31.905411,-8.692505 -45.684998,-26.126892c-1.432289,-1.432281 -2.173126,-2.913956 -3.605408,-4.346237c-23.212914,15.952698 -38.424786,29.040833 -42.820419,55.859146c-7.260208,38.474197 8.692497,39.165665 86.332291,39.165665c2.173126,0 3.605408,0 5.827927,0l0,0c2.173126,0 3.605408,0 5.827927,0c77.639771,0 92.851654,-0.74086 87.073105,-39.165665c-5.185852,-26.867706 -20.447113,-39.906448 -43.660019,-55.859146z" class="st0"/>
   <path stroke="null" id="svg_2" d="m143.921631,154.310684c23.953766,0 48.598969,-31.905426 48.598969,-63.119377c0,-31.905411 -21.78064,-51.512917 -48.598969,-51.512917s-48.598946,19.607498 -48.598946,51.512917c0.000008,31.213951 23.212914,63.119377 48.598946,63.119377z" class="st0"/>
  </g>
 </g>
</svg>