<svg version="1.1" xmlns="http://www.w3.org/2000/svg" xmlns:xlink="http://www.w3.org/1999/xlink" x="0px" y="0px" viewBox="0 0 250 250" xml:space="preserve">
    <g>
        <path class="st0" d="m 187.15213,189.59707 c -0.7653,-0.18469 -1.91326,-0.60259 -2.55102,-0.92868 -0.63775,-0.32608 -9.63504,-9.04558 -19.99397,-19.37668 l -18.83443,-18.7838 -4.27893,2.57958 c -29.21786,17.6141 -67.253956,4.5426 -79.525563,-27.32978 -2.794775,-7.25872 -3.644445,-12.64063 -3.400146,-21.53693 0.175992,-6.408855 0.412983,-8.407128 1.457721,-12.291281 5.59793,-20.812123 22.527906,-36.399479 43.805598,-40.331621 4.97971,-0.920258 14.16641,-0.920258 19.14613,0 11.42183,2.110768 21.44142,7.36818 29.49577,15.476817 6.68304,6.728087 11.79688,15.596253 14.33254,24.854804 1.17534,4.29154 1.27249,5.314244 1.29969,13.682741 0.0276,8.48025 -0.0495,9.3266 -1.23454,13.56564 -1.62221,5.80263 -3.48485,10.1521 -6.44938,15.06003 l -2.37133,3.92585 19.24531,19.32257 c 20.60581,20.68854 20.72539,20.83581 20.09904,24.75279 -0.60887,3.80768 -2.83572,6.46258 -6.11272,7.28774 -2.18641,0.55054 -2.1425,0.5498 -4.12977,0.0702 z M 122.3458,148.47445 c 13.754,-2.84096 26.12489,-13.19478 31.32468,-26.2172 2.10392,-5.26907 2.72007,-8.29922 2.96022,-14.55781 0.18654,-4.8618 0.0545,-6.88404 -0.68166,-10.440641 -4.2131,-20.354431 -21.85186,-34.769804 -42.54459,-34.769804 -11.00212,0 -21.321975,3.970581 -29.223052,11.24362 -8.828052,8.126332 -13.512183,18.118078 -14.023434,29.913475 -0.297193,6.85672 0.327139,11.23956 2.44726,17.1799 4.84261,13.56843 17.482767,24.64419 31.522786,27.62141 4.42768,0.93889 13.73636,0.95272 18.21779,0.027 l 0,1e-5 z"/>
        <path class="st0" d="m 111.87804,126.92116 c -3.42189,-0.73427 -4.26495,-2.81292 -4.26877,-10.52506 l -0.003,-5.21799 -6.07404,0 c -5.380237,0 -6.226589,-0.10863 -7.409554,-0.95097 -2.696494,-1.92008 -2.693861,-6.84777 0.0047,-8.7693 1.177292,-0.83831 2.031586,-0.94764 7.404874,-0.94764 l 6.07404,0 0.003,-5.217999 c 0.001,-2.86989 0.21747,-5.9917 0.48009,-6.93733 1.02046,-3.67426 5.92411,-4.92069 8.90238,-2.26284 l 1.51474,1.35177 0.23191,6.41724 0.23192,6.417249 6.41724,0.23191 6.41725,0.23192 1.35177,1.51473 c 1.90379,2.13332 1.90379,5.04129 0,7.17461 l -1.35177,1.51474 -6.41725,0.23191 -6.41723,0.23191 -0.23192,6.36887 c -0.22012,6.04506 -0.29155,6.42843 -1.40501,7.54012 -1.44824,1.44593 -3.44733,2.03304 -5.45535,1.60215 z" />
    </g>
</svg>